<mxfile host="app.diagrams.net" modified="2024-06-02T09:06:16.203Z" agent="Mozilla/5.0 (Windows NT 10.0; Win64; x64) AppleWebKit/537.36 (KHTML, like Gecko) Chrome/125.0.0.0 Safari/537.36" etag="Nr-cJEYJxFQ9B2fB2MaF" version="24.4.13" type="github">
  <diagram name="Page-1" id="zBQ5E3TP_sdfNHIRNbvZ">
    <mxGraphModel dx="1396" dy="819" grid="1" gridSize="10" guides="1" tooltips="1" connect="1" arrows="1" fold="1" page="1" pageScale="1" pageWidth="850" pageHeight="1100" math="0" shadow="0">
      <root>
        <mxCell id="0" />
        <mxCell id="1" parent="0" />
        <mxCell id="bB9hlJsPqk_iMUA8d4ts-1" value="Image_1" style="rounded=0;whiteSpace=wrap;html=1;" vertex="1" parent="1">
          <mxGeometry x="70" y="190" width="120" height="60" as="geometry" />
        </mxCell>
        <mxCell id="bB9hlJsPqk_iMUA8d4ts-2" value="Image_2" style="rounded=0;whiteSpace=wrap;html=1;" vertex="1" parent="1">
          <mxGeometry x="70" y="395" width="120" height="60" as="geometry" />
        </mxCell>
        <mxCell id="bB9hlJsPqk_iMUA8d4ts-59" style="edgeStyle=orthogonalEdgeStyle;rounded=0;orthogonalLoop=1;jettySize=auto;html=1;entryX=0.5;entryY=1;entryDx=0;entryDy=0;" edge="1" parent="1" source="bB9hlJsPqk_iMUA8d4ts-3" target="bB9hlJsPqk_iMUA8d4ts-4">
          <mxGeometry relative="1" as="geometry" />
        </mxCell>
        <mxCell id="bB9hlJsPqk_iMUA8d4ts-3" value="" style="strokeWidth=1;html=1;shape=mxgraph.flowchart.annotation_2;align=left;labelPosition=right;pointerEvents=1;rotation=-180;" vertex="1" parent="1">
          <mxGeometry x="190" y="222.5" width="40" height="203.75" as="geometry" />
        </mxCell>
        <mxCell id="bB9hlJsPqk_iMUA8d4ts-4" value="&lt;p style=&quot;line-height: 140%;&quot;&gt;&lt;b&gt;&lt;font style=&quot;font-size: 18px;&quot; face=&quot;Helvetica&quot;&gt;Encoder&lt;/font&gt;&lt;/b&gt;&lt;/p&gt;" style="rounded=0;whiteSpace=wrap;html=1;rotation=90;fillColor=#d5e8d4;strokeColor=#82b366;" vertex="1" parent="1">
          <mxGeometry x="210" y="295" width="170" height="52.5" as="geometry" />
        </mxCell>
        <mxCell id="bB9hlJsPqk_iMUA8d4ts-7" value="&lt;p style=&quot;line-height: 140%;&quot;&gt;&lt;b&gt;&lt;font style=&quot;font-size: 14px;&quot; face=&quot;Helvetica&quot;&gt;Context&lt;/font&gt;&lt;/b&gt;&lt;/p&gt;&lt;p style=&quot;line-height: 140%;&quot;&gt;&lt;b&gt;&lt;font style=&quot;font-size: 14px;&quot; face=&quot;Helvetica&quot;&gt;Encoder&lt;/font&gt;&lt;/b&gt;&lt;/p&gt;" style="rounded=0;whiteSpace=wrap;html=1;rotation=0;fillColor=#d5e8d4;strokeColor=#82b366;" vertex="1" parent="1">
          <mxGeometry x="395" y="115" width="120" height="50" as="geometry" />
        </mxCell>
        <mxCell id="bB9hlJsPqk_iMUA8d4ts-10" value="&lt;p style=&quot;line-height: 140%;&quot;&gt;&lt;b&gt;&lt;font style=&quot;font-size: 18px;&quot; face=&quot;Helvetica&quot;&gt;Upsampler&lt;/font&gt;&lt;/b&gt;&lt;/p&gt;" style="rounded=0;whiteSpace=wrap;html=1;rotation=90;fillColor=#dae8fc;strokeColor=#6c8ebf;" vertex="1" parent="1">
          <mxGeometry x="741.57" y="297.19" width="265.62" height="51.25" as="geometry" />
        </mxCell>
        <mxCell id="bB9hlJsPqk_iMUA8d4ts-17" value="" style="group" vertex="1" connectable="0" parent="1">
          <mxGeometry x="394.99514018641713" y="262.56735219405726" width="52.08971962716578" height="120.50529561188546" as="geometry" />
        </mxCell>
        <mxCell id="bB9hlJsPqk_iMUA8d4ts-23" value="" style="group" vertex="1" connectable="0" parent="bB9hlJsPqk_iMUA8d4ts-17">
          <mxGeometry x="1.7763568394002505e-14" y="7.105427357601002e-15" width="52.08971962716575" height="120.50529561188546" as="geometry" />
        </mxCell>
        <mxCell id="bB9hlJsPqk_iMUA8d4ts-14" value="" style="shape=parallelogram;perimeter=parallelogramPerimeter;whiteSpace=wrap;html=1;fixedSize=1;rotation=-89;" vertex="1" parent="bB9hlJsPqk_iMUA8d4ts-23">
          <mxGeometry x="-43.955140186417125" y="45.25264780594272" width="120" height="30" as="geometry" />
        </mxCell>
        <mxCell id="bB9hlJsPqk_iMUA8d4ts-15" value="" style="shape=parallelogram;perimeter=parallelogramPerimeter;whiteSpace=wrap;html=1;fixedSize=1;rotation=-89;" vertex="1" parent="bB9hlJsPqk_iMUA8d4ts-23">
          <mxGeometry x="-36.32514018641713" y="47.582647805942706" width="120" height="25.26" as="geometry" />
        </mxCell>
        <mxCell id="bB9hlJsPqk_iMUA8d4ts-16" value="" style="shape=parallelogram;perimeter=parallelogramPerimeter;whiteSpace=wrap;html=1;fixedSize=1;rotation=-89;" vertex="1" parent="bB9hlJsPqk_iMUA8d4ts-23">
          <mxGeometry x="-23.95514018641713" y="45.25264780594272" width="120" height="30" as="geometry" />
        </mxCell>
        <mxCell id="bB9hlJsPqk_iMUA8d4ts-18" value="Cost Memory" style="text;html=1;align=center;verticalAlign=middle;whiteSpace=wrap;rounded=0;" vertex="1" parent="1">
          <mxGeometry x="395" y="395" width="60" height="50" as="geometry" />
        </mxCell>
        <mxCell id="bB9hlJsPqk_iMUA8d4ts-19" value="FlowConvGRU" style="rounded=1;whiteSpace=wrap;html=1;fillColor=#e51400;fontColor=#ffffff;strokeColor=#B20000;" vertex="1" parent="1">
          <mxGeometry x="690" y="190" width="120" height="60" as="geometry" />
        </mxCell>
        <mxCell id="bB9hlJsPqk_iMUA8d4ts-21" value="" style="endArrow=classic;html=1;rounded=0;" edge="1" parent="1">
          <mxGeometry width="50" height="50" relative="1" as="geometry">
            <mxPoint x="460" y="321" as="sourcePoint" />
            <mxPoint x="500" y="321" as="targetPoint" />
          </mxGeometry>
        </mxCell>
        <mxCell id="bB9hlJsPqk_iMUA8d4ts-40" value="CovConvGRU" style="rounded=1;whiteSpace=wrap;html=1;fillColor=#e51400;fontColor=#ffffff;strokeColor=#B20000;" vertex="1" parent="1">
          <mxGeometry x="690" y="395" width="120" height="60" as="geometry" />
        </mxCell>
        <mxCell id="bB9hlJsPqk_iMUA8d4ts-42" value="Attention Layer" style="rounded=0;whiteSpace=wrap;html=1;fillColor=#647687;fontColor=#ffffff;strokeColor=#314354;" vertex="1" parent="1">
          <mxGeometry x="520" y="291.25" width="120" height="60" as="geometry" />
        </mxCell>
        <mxCell id="bB9hlJsPqk_iMUA8d4ts-43" value="" style="strokeWidth=1;html=1;shape=mxgraph.flowchart.annotation_2;align=left;labelPosition=right;pointerEvents=1;rotation=0;" vertex="1" parent="1">
          <mxGeometry x="640" y="216.25" width="50" height="210" as="geometry" />
        </mxCell>
        <mxCell id="bB9hlJsPqk_iMUA8d4ts-47" value="" style="edgeStyle=segmentEdgeStyle;endArrow=classic;html=1;curved=0;rounded=0;endSize=8;startSize=8;entryX=0.5;entryY=0;entryDx=0;entryDy=0;exitX=0.5;exitY=0;exitDx=0;exitDy=0;" edge="1" parent="1" source="bB9hlJsPqk_iMUA8d4ts-19" target="bB9hlJsPqk_iMUA8d4ts-42">
          <mxGeometry width="50" height="50" relative="1" as="geometry">
            <mxPoint x="770" y="130" as="sourcePoint" />
            <mxPoint x="660" y="170" as="targetPoint" />
            <Array as="points">
              <mxPoint x="750" y="170" />
              <mxPoint x="580" y="170" />
            </Array>
          </mxGeometry>
        </mxCell>
        <mxCell id="bB9hlJsPqk_iMUA8d4ts-49" value="" style="endArrow=none;html=1;rounded=0;entryX=1;entryY=0.5;entryDx=0;entryDy=0;exitX=0.115;exitY=0.999;exitDx=0;exitDy=0;exitPerimeter=0;" edge="1" parent="1" source="bB9hlJsPqk_iMUA8d4ts-10" target="bB9hlJsPqk_iMUA8d4ts-19">
          <mxGeometry width="50" height="50" relative="1" as="geometry">
            <mxPoint x="880" y="220" as="sourcePoint" />
            <mxPoint x="830" y="280" as="targetPoint" />
          </mxGeometry>
        </mxCell>
        <mxCell id="bB9hlJsPqk_iMUA8d4ts-50" value="" style="endArrow=none;html=1;rounded=0;entryX=1;entryY=0.5;entryDx=0;entryDy=0;" edge="1" parent="1">
          <mxGeometry width="50" height="50" relative="1" as="geometry">
            <mxPoint x="848" y="425" as="sourcePoint" />
            <mxPoint x="810" y="424.6" as="targetPoint" />
          </mxGeometry>
        </mxCell>
        <mxCell id="bB9hlJsPqk_iMUA8d4ts-56" value="" style="endArrow=none;html=1;rounded=0;entryX=1;entryY=0.5;entryDx=0;entryDy=0;exitX=0.115;exitY=0.999;exitDx=0;exitDy=0;exitPerimeter=0;" edge="1" parent="1">
          <mxGeometry width="50" height="50" relative="1" as="geometry">
            <mxPoint x="939" y="219.8" as="sourcePoint" />
            <mxPoint x="900" y="219.8" as="targetPoint" />
            <Array as="points">
              <mxPoint x="930" y="219.8" />
            </Array>
          </mxGeometry>
        </mxCell>
        <mxCell id="bB9hlJsPqk_iMUA8d4ts-57" value="" style="endArrow=none;html=1;rounded=0;entryX=1;entryY=0.5;entryDx=0;entryDy=0;exitX=0.115;exitY=0.999;exitDx=0;exitDy=0;exitPerimeter=0;" edge="1" parent="1">
          <mxGeometry width="50" height="50" relative="1" as="geometry">
            <mxPoint x="939" y="424.8" as="sourcePoint" />
            <mxPoint x="900" y="424.8" as="targetPoint" />
            <Array as="points">
              <mxPoint x="930" y="424.8" />
            </Array>
          </mxGeometry>
        </mxCell>
        <mxCell id="bB9hlJsPqk_iMUA8d4ts-58" value="" style="edgeStyle=segmentEdgeStyle;endArrow=classic;html=1;curved=0;rounded=0;endSize=8;startSize=8;entryX=0.75;entryY=0;entryDx=0;entryDy=0;exitX=1;exitY=0.5;exitDx=0;exitDy=0;" edge="1" parent="1" source="bB9hlJsPqk_iMUA8d4ts-7" target="bB9hlJsPqk_iMUA8d4ts-19">
          <mxGeometry width="50" height="50" relative="1" as="geometry">
            <mxPoint x="560" y="150" as="sourcePoint" />
            <mxPoint x="610" y="100" as="targetPoint" />
            <Array as="points">
              <mxPoint x="780" y="140" />
            </Array>
          </mxGeometry>
        </mxCell>
        <mxCell id="bB9hlJsPqk_iMUA8d4ts-60" value="Flow" style="rounded=0;whiteSpace=wrap;html=1;" vertex="1" parent="1">
          <mxGeometry x="940" y="190" width="120" height="60" as="geometry" />
        </mxCell>
        <mxCell id="bB9hlJsPqk_iMUA8d4ts-61" value="Cov" style="rounded=0;whiteSpace=wrap;html=1;" vertex="1" parent="1">
          <mxGeometry x="940" y="395" width="120" height="60" as="geometry" />
        </mxCell>
        <mxCell id="bB9hlJsPqk_iMUA8d4ts-62" value="" style="endArrow=classic;html=1;rounded=0;" edge="1" parent="1">
          <mxGeometry width="50" height="50" relative="1" as="geometry">
            <mxPoint x="340" y="320.96" as="sourcePoint" />
            <mxPoint x="380" y="320.96" as="targetPoint" />
          </mxGeometry>
        </mxCell>
        <mxCell id="bB9hlJsPqk_iMUA8d4ts-64" value="" style="edgeStyle=segmentEdgeStyle;endArrow=classic;html=1;curved=0;rounded=0;endSize=8;startSize=8;entryX=0;entryY=0.5;entryDx=0;entryDy=0;exitX=0.5;exitY=0;exitDx=0;exitDy=0;" edge="1" parent="1" source="bB9hlJsPqk_iMUA8d4ts-1" target="bB9hlJsPqk_iMUA8d4ts-7">
          <mxGeometry width="50" height="50" relative="1" as="geometry">
            <mxPoint x="-50" y="110" as="sourcePoint" />
            <mxPoint x="290" y="160" as="targetPoint" />
            <Array as="points">
              <mxPoint x="130" y="140" />
            </Array>
          </mxGeometry>
        </mxCell>
        <mxCell id="bB9hlJsPqk_iMUA8d4ts-65" value="" style="edgeStyle=segmentEdgeStyle;endArrow=classic;html=1;curved=0;rounded=0;endSize=8;startSize=8;exitX=0.75;exitY=1;exitDx=0;exitDy=0;entryX=0.25;entryY=1;entryDx=0;entryDy=0;" edge="1" parent="1" source="bB9hlJsPqk_iMUA8d4ts-19" target="bB9hlJsPqk_iMUA8d4ts-19">
          <mxGeometry width="50" height="50" relative="1" as="geometry">
            <mxPoint x="770" y="294" as="sourcePoint" />
            <mxPoint x="610" y="260" as="targetPoint" />
            <Array as="points">
              <mxPoint x="780" y="280" />
              <mxPoint x="720" y="280" />
            </Array>
          </mxGeometry>
        </mxCell>
        <mxCell id="bB9hlJsPqk_iMUA8d4ts-66" value="" style="edgeStyle=segmentEdgeStyle;endArrow=classic;html=1;curved=0;rounded=0;endSize=8;startSize=8;exitX=0.75;exitY=0;exitDx=0;exitDy=0;entryX=0.25;entryY=0;entryDx=0;entryDy=0;" edge="1" parent="1" source="bB9hlJsPqk_iMUA8d4ts-40" target="bB9hlJsPqk_iMUA8d4ts-40">
          <mxGeometry width="50" height="50" relative="1" as="geometry">
            <mxPoint x="790" y="260" as="sourcePoint" />
            <mxPoint x="730" y="260" as="targetPoint" />
            <Array as="points">
              <mxPoint x="780" y="360" />
              <mxPoint x="720" y="360" />
            </Array>
          </mxGeometry>
        </mxCell>
      </root>
    </mxGraphModel>
  </diagram>
</mxfile>
